<svg xmlns="http://www.w3.org/2000/svg" width="51" height="30" viewBox="0 0 51 30">
  <g id="그룹_166184" data-name="그룹 166184" transform="translate(-590 -1826)">
    <rect id="사각형_148689" data-name="사각형 148689" width="51" height="30" rx="15" transform="translate(590 1826)" fill="#1f3bd9"/>
    <path id="패스_86238" data-name="패스 86238" d="M7.8-8.5H6.048v5.4H5.976L2.256-8.5H.72V0H2.472V-5.4h.072L6.264,0H7.8ZM8.88,0h5.712V-1.464h-3.96V-3.528H14.28v-1.44H10.632V-7.032h3.936V-8.5H8.88Zm8.592,0H19.2l1.608-5.592h.072L22.512,0H24.24l2.424-8.5H24.72L23.3-2.544h-.072L21.672-8.5H20.016l-1.56,5.952h-.072L16.968-8.5h-1.92Z" transform="translate(603 1845)" fill="#fff"/>
  </g>
</svg>
