<svg xmlns="http://www.w3.org/2000/svg" xmlns:xlink="http://www.w3.org/1999/xlink" width="505" height="130" viewBox="0 0 505 130">
  <defs>
    <clipPath id="clip-path">
      <rect id="사각형_148861" data-name="사각형 148861" width="505" height="130" transform="translate(-23107 -10157)" fill="#2e0707"/>
    </clipPath>
  </defs>
  <g id="마스크_그룹_162" data-name="마스크 그룹 162" transform="translate(23107 10157)" clip-path="url(#clip-path)">
    <g id="그룹_2580" data-name="그룹 2580" transform="translate(70.001 156)">
      <g id="logo_full_Primary_Style" transform="translate(-23175 -10312)">
        <rect id="사각형_2" data-name="사각형 2" width="295.387" height="128.802" fill="rgba(255,255,255,0)"/>
        <g id="white" transform="translate(32.352 24.329)">
          <g id="그룹_1" data-name="그룹 1" transform="translate(37.071 27.859)">
            <path id="패스_1" data-name="패스 1" d="M195.3,313.379a23.544,23.544,0,0,1,23.342-23.741,23.09,23.09,0,0,1,17.314,7.827,25.992,25.992,0,0,0-22.071-12.375,26.581,26.581,0,0,0,0,53.154,25.666,25.666,0,0,0,8.394-1.408,22.791,22.791,0,0,1-3.637.287A23.546,23.546,0,0,1,195.3,313.379" transform="translate(-132.814 -285.09)" fill="#fff"/>
            <path id="패스_2" data-name="패스 2" d="M229.141,313.123a18.259,18.259,0,0,0-17.251-19.173,17.83,17.83,0,0,0-13.645,5.452,20.076,20.076,0,0,1,17.476-8.8,20.575,20.575,0,0,1-1.785,41.1,19.87,19.87,0,0,1-6.433-1.381,19.333,19.333,0,0,0,2.795.344,18.194,18.194,0,0,0,18.844-17.548" transform="translate(-129.103 -283.015)" fill="#fff"/>
            <path id="패스_3" data-name="패스 3" d="M147.184,334.432h12.48a5.4,5.4,0,0,1-3.12-4.858V296.063l13.673,32.672a17.785,17.785,0,0,0,5.316,6.627l15.775-39.58v34.446a4.559,4.559,0,0,1-3.108,4.1h13.67a7.518,7.518,0,0,1-3.674-5.508v-38.17a3.863,3.863,0,0,1,3.026-3.644H187.829a15.094,15.094,0,0,1-.942,4.5c-1,2.842-11.655,30.492-11.655,30.492l-14.653-34.8h-13.3a4.907,4.907,0,0,1,3.216,4.947v36.5a8.465,8.465,0,0,1-3.307,5.791" transform="translate(-147.184 -284.365)" fill="#fff"/>
            <path id="패스_4" data-name="패스 4" d="M253.6,287.115H267.82s-3.4,1.509-3.4,4.876v37.882s-.088,2.751,3.4,4.524H253.6a7.317,7.317,0,0,0,3.316-4.524v-37.7a6.191,6.191,0,0,0-3.316-5.056" transform="translate(-109.499 -284.325)" fill="#fff"/>
            <path id="패스_5" data-name="패스 5" d="M294.93,296.77l-.058-8.959a48.546,48.546,0,0,0-11.1-1.6s-16.737-.706-17.526,12.782c0,0-.172,8.428,10.379,12.773,0,0,8.371,3.637,10.547,5.409a6.57,6.57,0,0,1,3.49,5.948s.513,7.43-10.068,7.416c0,0-9.9-.05-15.391-6.623l2.44,9.94s4.706,1.6,13.254,1.777c0,0,17.25-.354,17.962-13.93,0,0,.409-7-7.086-10.857,0,0-6.362-3.065-12.649-6.4,0,0-4.471-2.448-4.471-6.832,0,0,.171-6.211,9.032-6.164,0,0,7.5-.361,11.249,5.317" transform="translate(-105.393 -284.669)" fill="#fff"/>
            <path id="패스_6" data-name="패스 6" d="M245.027,328.866l-8.777-.083V310.914h6.628s10.937-.174,10.937,9.2c0,0,.339,8.056-8.788,8.754m-8.688-36.958a30.506,30.506,0,0,1,5.253-.178c8.084.619,7.741,6.836,7.741,6.836,0,7.706-9.123,7.44-9.123,7.44h-3.871ZM250.8,307.139s6.712-2.749,6.712-9.936c0,0-.083-9.584-12.911-10.026l-19,.091a5.54,5.54,0,0,1,3.318,5.171V329.85a4.4,4.4,0,0,1-3.318,4.429H244.52s17.432-.767,17.432-14.718c0,0,.724-9.523-11.157-12.422" transform="translate(-119.418 -284.302)" fill="#fff"/>
          </g>
          <g id="그룹_2" data-name="그룹 2">
            <path id="패스_7" data-name="패스 7" d="M133.113,264.869v7.7H124.53v-7.7h-4.723v20.2h4.723v-8.121h8.583v8.121h4.729v-20.2h-4.729Z" transform="translate(-119.808 -264.869)" fill="#fff"/>
            <path id="패스_8" data-name="패스 8" d="M149.967,264.869l-4.944,8-4.942-8H134.5l8.168,13.2v7h4.718v-7l8.158-13.2h-5.577Z" transform="translate(-114.605 -264.869)" fill="#fff"/>
            <path id="패스_9" data-name="패스 9" d="M164.75,264.869v14.813a.985.985,0,0,1-1,1.011h-7.579V264.869h-4.729v20.2h13.972a4.006,4.006,0,0,0,2.968-1.106,4.133,4.133,0,0,0,1.09-3.016V264.869H164.75Z" transform="translate(-108.605 -264.869)" fill="#fff"/>
            <path id="패스_10" data-name="패스 10" d="M181.964,264.869H167.991v20.2h4.723V269.243h7.58a.991.991,0,0,1,1,1.009v14.818h4.719V269.006a4.132,4.132,0,0,0-1.091-3.024A4,4,0,0,0,181.964,264.869Z" transform="translate(-102.745 -264.869)" fill="#fff"/>
            <path id="패스_11" data-name="패스 11" d="M198.509,264.869H184.535v20.2h13.974a4,4,0,0,0,2.968-1.106,4.14,4.14,0,0,0,1.09-3.016V269.006a4.139,4.139,0,0,0-1.094-3.024A4,4,0,0,0,198.509,264.869Zm-.662,5.42v9.364a1,1,0,0,1-1.009,1.04h-7.574v-11.45h7.548A1,1,0,0,1,197.847,270.289Z" transform="translate(-96.886 -264.869)" fill="#fff"/>
            <path id="패스_12" data-name="패스 12" d="M204.991,264.869a4,4,0,0,0-2.966,1.113,4.147,4.147,0,0,0-1.087,3.024v16.063h4.712v-6.245h8.585v6.245h4.716v-20.2Zm9.245,4.374v5.208H205.65v-4.18a1.021,1.021,0,0,1,1.01-1.028Z" transform="translate(-91.078 -264.869)" fill="#fff"/>
            <rect id="사각형_1" data-name="사각형 1" width="4.727" height="20.201" transform="translate(132.48 0)" fill="#fff"/>
          </g>
        </g>
      </g>
      <path id="패스_83569" data-name="패스 83569" d="M19.1.6c8.3,0,12.65-4.65,14.8-8.95l-7.4-3.5A8.091,8.091,0,0,1,19.1-7c-5.2,0-9.05-4.2-9.05-9.65S13.9-26.3,19.1-26.3a8.091,8.091,0,0,1,7.4,4.85l7.4-3.5c-2.2-4.4-6.5-8.95-14.8-8.95-10,0-17.8,6.95-17.8,17.25C1.3-6.4,9.1.6,19.1.6ZM69.6,0,57-33.35H46.2L33.65,0H43l1.7-5.05H58.55L60.25,0ZM56.3-12.3H46.95L51.6-25.85ZM100.5,0,93.7-12.25a10.1,10.1,0,0,0,6.65-10c0-6.2-4.2-11.1-11.6-11.1H72.05V0h8.6V-11.3h4.4L90.65,0ZM91.6-22.35a3.846,3.846,0,0,1-4.15,3.75h-6.8v-7.5h6.8A3.846,3.846,0,0,1,91.6-22.35ZM129.55,0V-7.25H113.7v-6h15.5v-7.3H113.7V-26.1h15.85v-7.25H105.1V0ZM159,0V-7.25H143.15v-6h15.5v-7.3h-15.5V-26.1H159v-7.25H134.55V0Zm33.45,0-6.8-12.25a10.1,10.1,0,0,0,6.65-10c0-6.2-4.2-11.1-11.6-11.1H164V0h8.6V-11.3H177L182.6,0Zm-8.9-22.35a3.846,3.846,0,0,1-4.15,3.75h-6.8v-7.5h6.8A3.846,3.846,0,0,1,183.55-22.35ZM194.65-4.7C198-1.5,202.7.6,209.45.6c8.95,0,13.9-4.45,13.9-11.15,0-7.55-7.6-9.15-13.1-10.3-3.7-.7-5.75-1.3-5.75-3.05,0-1.45,1.1-2.6,3.95-2.6a15.5,15.5,0,0,1,9.4,3.45l4.7-6.15A20.344,20.344,0,0,0,209-33.85c-8.55,0-13.3,4.85-13.3,10.45,0,7.9,7.7,9.3,13.2,10.4,3.55.75,5.7,1.5,5.7,3.4,0,1.6-1.8,2.85-4.75,2.85a15.068,15.068,0,0,1-10.65-4.4Z" transform="translate(-22898 -10209)" fill="#fff"/>
    </g>
  </g>
</svg>
