<svg xmlns="http://www.w3.org/2000/svg" xmlns:xlink="http://www.w3.org/1999/xlink" width="225" height="42" viewBox="0 0 225 42">
  <defs>
    <clipPath id="clip-path">
      <rect id="사각형_148788" data-name="사각형 148788" width="225" height="42" transform="translate(-23680 -21201)" fill="#7f1212"/>
    </clipPath>
  </defs>
  <g id="마스크_그룹_123" data-name="마스크 그룹 123" transform="translate(23680 21201)" clip-path="url(#clip-path)">
    <g id="logo_full_Primary_Style" transform="translate(-23694 -21210)">
      <rect id="사각형_2" data-name="사각형 2" width="139.893" height="61" fill="rgba(255,255,255,0)"/>
      <g id="white" transform="translate(15.322 11.522)">
        <g id="그룹_1" data-name="그룹 1" transform="translate(17.557 13.194)">
          <path id="패스_1" data-name="패스 1" d="M191.335,298.487a11.151,11.151,0,0,1,11.055-11.244,10.935,10.935,0,0,1,8.2,3.707,12.31,12.31,0,0,0-10.453-5.861,12.589,12.589,0,0,0,0,25.174,12.155,12.155,0,0,0,3.975-.667,10.8,10.8,0,0,1-1.723.136,11.151,11.151,0,0,1-11.055-11.245" transform="translate(-161.74 -285.09)" fill="#dc000c"/>
          <path id="패스_2" data-name="패스 2" d="M212.877,301.257a8.647,8.647,0,0,0-8.17-9.08,8.444,8.444,0,0,0-6.462,2.582,9.508,9.508,0,0,1,8.277-4.167,9.744,9.744,0,0,1-.845,19.467,9.41,9.41,0,0,1-3.047-.654,9.154,9.154,0,0,0,1.324.163,8.617,8.617,0,0,0,8.924-8.311" transform="translate(-165.499 -286.999)" fill="#dc000c"/>
          <path id="패스_3" data-name="패스 3" d="M147.184,309.468h5.91a2.558,2.558,0,0,1-1.478-2.3V291.3l6.475,15.473a8.423,8.423,0,0,0,2.518,3.138l7.471-18.745v16.313a2.159,2.159,0,0,1-1.472,1.943h6.474a3.56,3.56,0,0,1-1.74-2.609V288.735a1.829,1.829,0,0,1,1.433-1.726h-6.343a7.148,7.148,0,0,1-.446,2.13c-.471,1.346-5.52,14.441-5.52,14.441l-6.94-16.481h-6.3a2.324,2.324,0,0,1,1.523,2.343v17.284a4.009,4.009,0,0,1-1.566,2.742" transform="translate(-147.184 -285.757)" fill="#fff"/>
          <path id="패스_4" data-name="패스 4" d="M253.6,287.115h6.733a2.759,2.759,0,0,0-1.61,2.309v17.941a2.529,2.529,0,0,0,1.61,2.143H253.6a3.465,3.465,0,0,0,1.571-2.143V289.51a2.932,2.932,0,0,0-1.571-2.395" transform="translate(-185.356 -285.794)" fill="#fff"/>
          <path id="패스_5" data-name="패스 5" d="M279.279,291.208l-.028-4.243a22.991,22.991,0,0,0-5.259-.758s-7.926-.334-8.3,6.054c0,0-.081,3.991,4.916,6.049a36.916,36.916,0,0,1,5,2.562,3.111,3.111,0,0,1,1.653,2.817s.243,3.519-4.768,3.512c0,0-4.689-.023-7.289-3.137l1.156,4.708a22.866,22.866,0,0,0,6.277.842s8.17-.168,8.507-6.6a5.74,5.74,0,0,0-3.356-5.142s-3.013-1.452-5.99-3.03a4.151,4.151,0,0,1-2.118-3.236s.081-2.941,4.277-2.919c0,0,3.553-.171,5.327,2.518" transform="translate(-189.516 -285.477)" fill="#fff"/>
          <path id="패스_6" data-name="패스 6" d="M234.8,306.921l-4.157-.039v-8.463h3.139s5.18-.082,5.18,4.356a4.081,4.081,0,0,1-4.162,4.146m-4.115-17.5a14.449,14.449,0,0,1,2.488-.084c3.829.293,3.666,3.238,3.666,3.238,0,3.649-4.32,3.523-4.32,3.523h-1.833Zm6.847,7.213a5.322,5.322,0,0,0,3.179-4.706s-.039-4.539-6.115-4.748l-9,.043a2.624,2.624,0,0,1,1.571,2.449v17.718a2.083,2.083,0,0,1-1.571,2.1h8.963s8.255-.363,8.255-6.97c0,0,.343-4.51-5.284-5.883" transform="translate(-175.31 -285.815)" fill="#fff"/>
        </g>
        <g id="그룹_2" data-name="그룹 2">
          <path id="패스_7" data-name="패스 7" d="M126.109,264.869v3.645h-4.065v-3.645h-2.237v9.567h2.237V270.59h4.065v3.846h2.24v-9.567h-2.24Z" transform="translate(-119.808 -264.869)" fill="#fff"/>
          <path id="패스_8" data-name="패스 8" d="M141.825,264.869l-2.342,3.789-2.341-3.789H134.5l3.868,6.254v3.313H140.6v-3.313l3.864-6.254h-2.641Z" transform="translate(-125.078 -264.869)" fill="#fff"/>
          <path id="패스_9" data-name="패스 9" d="M157.745,264.869v7.016a.466.466,0,0,1-.474.479h-3.589v-7.494h-2.239v9.567h6.617a1.9,1.9,0,0,0,1.406-.524,1.958,1.958,0,0,0,.516-1.428v-7.615h-2.236Z" transform="translate(-131.155 -264.869)" fill="#fff"/>
          <path id="패스_10" data-name="패스 10" d="M174.609,264.869h-6.618v9.567h2.237v-7.5h3.59a.469.469,0,0,1,.476.478v7.018h2.235v-7.607a1.957,1.957,0,0,0-.517-1.432A1.894,1.894,0,0,0,174.609,264.869Z" transform="translate(-137.091 -264.869)" fill="#fff"/>
          <path id="패스_11" data-name="패스 11" d="M191.153,264.869h-6.618v9.567h6.618a1.9,1.9,0,0,0,1.406-.524,1.961,1.961,0,0,0,.516-1.428v-5.655a1.96,1.96,0,0,0-.518-1.432A1.9,1.9,0,0,0,191.153,264.869Zm-.314,2.567v4.435a.476.476,0,0,1-.478.493h-3.587v-5.423h3.575A.474.474,0,0,1,190.84,267.436Z" transform="translate(-143.025 -264.869)" fill="#fff"/>
          <path id="패스_12" data-name="패스 12" d="M202.857,264.869a1.9,1.9,0,0,0-1.4.527,1.964,1.964,0,0,0-.515,1.432v7.607h2.232v-2.958h4.066v2.958h2.234v-9.567Zm4.378,2.072v2.466H203.17v-1.98a.484.484,0,0,1,.478-.487Z" transform="translate(-148.909 -264.869)" fill="#fff"/>
          <rect id="사각형_1" data-name="사각형 1" width="2.239" height="9.567" transform="translate(62.742 0)" fill="#fff"/>
        </g>
      </g>
    </g>
    <path id="패스_83493" data-name="패스 83493" d="M9.168.288a7.492,7.492,0,0,0,7.1-4.3L12.72-5.688A3.884,3.884,0,0,1,9.168-3.36,4.4,4.4,0,0,1,4.824-7.992a4.4,4.4,0,0,1,4.344-4.632A3.884,3.884,0,0,1,12.72-10.3l3.552-1.68a7.444,7.444,0,0,0-7.1-4.3c-4.8,0-8.544,3.336-8.544,8.28C.624-3.072,4.368.288,9.168.288ZM33.408,0,27.36-16.008H22.176L16.152,0H20.64l.816-2.424H28.1L28.92,0ZM27.024-5.9H22.536l2.232-6.5ZM48.24,0,44.976-5.88a4.85,4.85,0,0,0,3.192-4.8c0-2.976-2.016-5.328-5.568-5.328H34.584V0h4.128V-5.424h2.112L43.512,0ZM43.968-10.728a1.846,1.846,0,0,1-1.992,1.8H38.712v-3.6h3.264A1.846,1.846,0,0,1,43.968-10.728ZM62.184,0V-3.48H54.576V-6.36h7.44v-3.5h-7.44v-2.664h7.608v-3.48H50.448V0ZM76.32,0V-3.48H68.712V-6.36h7.44v-3.5h-7.44v-2.664H76.32v-3.48H64.584V0ZM92.376,0,89.112-5.88a4.85,4.85,0,0,0,3.192-4.8c0-2.976-2.016-5.328-5.568-5.328H78.72V0h4.128V-5.424H84.96L87.648,0ZM88.1-10.728a1.846,1.846,0,0,1-1.992,1.8H82.848v-3.6h3.264A1.846,1.846,0,0,1,88.1-10.728Zm5.328,8.472a9.792,9.792,0,0,0,7.1,2.544c4.3,0,6.672-2.136,6.672-5.352,0-3.624-3.648-4.392-6.288-4.944-1.776-.336-2.76-.624-2.76-1.464,0-.7.528-1.248,1.9-1.248a7.439,7.439,0,0,1,4.512,1.656l2.256-2.952a9.765,9.765,0,0,0-6.5-2.232c-4.1,0-6.384,2.328-6.384,5.016,0,3.792,3.7,4.464,6.336,4.992,1.7.36,2.736.72,2.736,1.632,0,.768-.864,1.368-2.28,1.368a7.233,7.233,0,0,1-5.112-2.112Z" transform="translate(-23563 -21161)" fill="#fff"/>
  </g>
</svg>
