<svg id="symbol" xmlns="http://www.w3.org/2000/svg" width="692" height="692" viewBox="0 0 692 692">
  <g id="사각형_148868" data-name="사각형 148868" fill="#fff" stroke="#f0f0f0" stroke-width="1" opacity="0.002">
    <rect width="692" height="692" stroke="none"/>
    <rect x="0.5" y="0.5" width="691" height="691" fill="none"/>
  </g>
  <g id="그룹_2688" data-name="그룹 2688" transform="translate(19.73 19.736)">
    <path id="패스_83550" data-name="패스 83550" d="M26.389,49.733,30.8,41.871c-.557.677-1.111,1.371-1.673,2.05-.677.857-1.368,1.7-2.027,2.544-.017.011-.009.029-.026.037l-3.9,6.945c1.051-1.248,2.113-2.479,3.2-3.707Z" transform="translate(42.997 77.697)" fill="#f0f0f0"/>
    <path id="패스_83551" data-name="패스 83551" d="M35.819,37.257c-.137.146-.274.291-.4.454-.211.211-.411.437-.62.691-.76.794-1.485,1.611-2.2,2.444l-.017.009-5.96,10.286c.908-.925,1.816-1.848,2.75-2.761Z" transform="translate(49.399 69.136)" fill="#f0f0f0"/>
    <path id="패스_83552" data-name="패스 83552" d="M41.021,33.163q-1.546,1.525-3.047,3.087L29.85,49.8c.845-.8,1.728-1.573,2.61-2.347Z" transform="translate(55.391 61.539)" fill="#f0f0f0"/>
    <path id="패스_83553" data-name="패스 83553" d="M37.2,47.312,148.219,199.445c.554-.346,1.111-.663,1.682-1L38.706,46.058,51.468,26.126c-.917.751-1.808,1.511-2.719,2.279L36.173,48.051c.337-.246.68-.494,1.025-.74" transform="translate(67.124 48.48)" fill="#f0f0f0"/>
    <path id="패스_83554" data-name="패스 83554" d="M41.569,46.088l.017-.009L56.833,23.032c-.862.654-1.742,1.316-2.6,1.985L39.319,47.565c.754-.5,1.488-.991,2.25-1.476" transform="translate(72.962 42.74)" fill="#f0f0f0"/>
    <path id="패스_83555" data-name="패스 83555" d="M44.692,45.982,62.376,20.133a.486.486,0,0,1-.123.094c-.811.554-1.593,1.117-2.4,1.673l-.017.009L42.507,47.264c.722-.437,1.445-.877,2.185-1.282" transform="translate(78.878 37.359)" fill="#f0f0f0"/>
    <path id="패스_83556" data-name="패스 83556" d="M47.861,46.007l20.2-28.545c-.471.294-.945.588-1.416.885-.357.226-.694.445-1.051.674l-.017.009L45.711,47.118q1.058-.582,2.15-1.111" transform="translate(84.823 32.403)" fill="#f0f0f0"/>
    <path id="패스_83557" data-name="패스 83557" d="M53.959,46.552,153.272,207.7c.634-.254,1.285-.5,1.942-.717L55.7,45.518c-.331.126-.651.257-.977.386L79.9,12.681c-.634.32-1.251.634-1.888.957-.166.094-.323.166-.491.26L52.266,47.24c.565-.234,1.125-.463,1.693-.688" transform="translate(96.987 23.531)" fill="#f0f0f0"/>
    <path id="패스_83558" data-name="패스 83558" d="M57.673,46.778l.017-.009L86.072,10.554c-.785.366-1.539.711-2.324,1.077l-.017.011L55.62,47.52c.688-.266,1.371-.505,2.053-.742" transform="translate(103.211 19.585)" fill="#f0f0f0"/>
    <path id="패스_83559" data-name="패스 83559" d="M61.044,47.294,92.433,8.615c-.762.328-1.551.651-2.33.991L59.017,47.888c.685-.194,1.342-.4,2.028-.594" transform="translate(109.514 15.987)" fill="#f0f0f0"/>
    <path id="패스_83560" data-name="패스 83560" d="M64.482,47.867l34.482-41c-.774.268-1.533.528-2.287.831L62.46,48.393c.668-.186,1.345-.357,2.022-.525" transform="translate(115.903 12.752)" fill="#f0f0f0"/>
    <path id="패스_83561" data-name="패스 83561" d="M71.17,49.451,156.6,214.072l2.165-.411L73.229,48.866c-.491.054-.982.128-1.474.2L112.519,3.938c-.754.191-1.482.388-2.225.6L69.488,49.694c.568-.08,1.119-.163,1.682-.243" transform="translate(128.944 7.309)" fill="#f0f0f0"/>
    <path id="패스_83562" data-name="패스 83562" d="M75,50.318l44.582-47.56c-.594.123-1.205.254-1.808.4-.134.031-.263.04-.4.074L73.062,50.53c.651-.066,1.291-.146,1.939-.211" transform="translate(135.577 5.118)" fill="#f0f0f0"/>
    <path id="패스_83563" data-name="패스 83563" d="M78.572,51.354,126.8,1.78c-.717.1-1.456.243-2.179.371l-.017.009-47.94,49.3c.643-.037,1.268-.066,1.91-.106" transform="translate(142.256 3.305)" fill="#f0f0f0"/>
    <path id="패스_83564" data-name="패스 83564" d="M82.155,52.5l.017-.009L134.168,1c-.58.069-1.177.148-1.776.228-.117.023-.246.031-.366.054L80.3,52.509l1.856-.009" transform="translate(149.005 1.867)" fill="#f0f0f0"/>
    <path id="패스_83565" data-name="패스 83565" d="M85.782,53.721,141.667.455c-.711.034-1.385.091-2.1.168l-.014.009L83.946,53.65q.9.013,1.836.071" transform="translate(155.772 0.845)" fill="#f0f0f0"/>
    <path id="패스_83566" data-name="패스 83566" d="M91.7,56.288l66.967,161.28c.231.023.48.011.737.026a3.484,3.484,0,0,1,.423,0c.154,0,.308,0,.48.011.128.009.257.014.4.034s.257.014.386.023L94.128,56.385c-.271-.04-.548-.074-.822-.114L157.155,0c-.086.006-.18-.006-.266,0-.62,0-1.219,0-1.83.014L91.264,56.231c.146.017.286.04.431.057" transform="translate(169.352 0.001)" fill="#f0f0f0"/>
    <path id="패스_83567" data-name="패스 83567" d="M96.676,58.015,96.693,58l63.369,159.861c.2,0,.386.023.557.031.357.031.708.077,1.068.109.129.009.246.031.374.04.163.026.334.037.494.063L99.209,58.32c-.768-.186-1.553-.337-2.336-.474L165.008.177,162.966.094l-68.03,57.6c.574.111,1.165.214,1.739.326" transform="translate(176.168 0.176)" fill="#f0f0f0"/>
    <path id="패스_83568" data-name="패스 83568" d="M100.32,59.652,173.013.581a1.273,1.273,0,0,1-.251-.011c-.585-.057-1.174-.117-1.77-.151L98.575,59.241c.577.154,1.162.283,1.745.411" transform="translate(182.919 0.776)" fill="#f0f0f0"/>
    <path id="패스_83569" data-name="패스 83569" d="M103.889,61.377l77.193-60.14c-.123-.02-.217-.031-.34-.049-.163-.017-.328-.031-.474-.057-.408-.054-.8-.117-1.2-.151L102.193,60.894c.56.163,1.119.328,1.7.483" transform="translate(189.632 1.819)" fill="#f0f0f0"/>
    <path id="패스_83570" data-name="패스 83570" d="M107.452,63.181l81.762-61.05c-.051-.014-.094-.011-.148-.026-.617-.109-1.216-.228-1.825-.32L105.776,62.618c.571.183,1.122.371,1.676.563" transform="translate(196.281 3.313)" fill="#f0f0f0"/>
    <path id="패스_83571" data-name="패스 83571" d="M110.95,65.033l86.4-61.759-.026-.009c-.62-.151-1.265-.308-1.89-.434L109.322,64.4c.545.217,1.082.417,1.628.634" transform="translate(202.862 5.257)" fill="#f0f0f0"/>
    <path id="패스_83572" data-name="패스 83572" d="M114.377,66.985,205.586,4.647,205.3,4.57c-.534-.157-1.068-.314-1.608-.445L112.8,66.254c.528.226,1.068.468,1.573.731" transform="translate(209.322 7.653)" fill="#f0f0f0"/>
    <path id="패스_83573" data-name="패스 83573" d="M117.751,68.954,213.777,6.247c-.6-.2-1.211-.408-1.825-.585l-95.729,62.49c.508.263,1.039.531,1.528.8" transform="translate(215.667 10.508)" fill="#f0f0f0"/>
    <path id="패스_83574" data-name="패스 83574" d="M129.955,76.83l37.837,150.52c.483.545.965,1.088,1.439,1.651a2.922,2.922,0,0,1,.231.288c.217.237.443.5.651.754.271.334.537.643.811.977a3.394,3.394,0,0,0,.288.343c.023.037.063.083.086.117L133,79.112q-1.212-1.015-2.447-2.022l115.5-61.933c-.543-.328-1.094-.628-1.645-.931L129.047,76.09c.306.243.6.491.908.74" transform="translate(239.464 26.399)" fill="#f0f0f0"/>
    <path id="패스_83575" data-name="패스 83575" d="M133.277,79.29,253.9,17.951c-.525-.337-1.054-.674-1.6-1L131.986,78.131c.445.385.862.765,1.291,1.159" transform="translate(244.917 31.453)" fill="#f0f0f0"/>
    <path id="패스_83576" data-name="패스 83576" d="M136.026,81.4l.009.017,125.59-60.455c-.143-.094-.26-.18-.4-.277-.3-.22-.6-.425-.925-.64-.071-.049-.151-.111-.223-.157L134.8,80.188c.411.4.814.794,1.234,1.216" transform="translate(250.124 36.906)" fill="#f0f0f0"/>
    <path id="패스_83577" data-name="패스 83577" d="M138.622,83.517,269.153,24.171c-.488-.383-.965-.751-1.471-1.122L137.463,82.238c.394.414.782.854,1.159,1.279" transform="translate(255.08 42.771)" fill="#f0f0f0"/>
    <path id="패스_83578" data-name="패스 83578" d="M145.514,89.765,290.6,34.994l-1.291-1.314L144.552,88.328c.337.468.643.957.962,1.436" transform="translate(268.235 62.497)" fill="#f0f0f0"/>
    <path id="패스_83579" data-name="패스 83579" d="M147.492,91.8,297.33,38.964l-.551-.611c-.24-.26-.463-.531-.717-.782L146.593,90.282c.288.5.585,1.014.9,1.519" transform="translate(272.023 69.717)" fill="#f0f0f0"/>
    <path id="패스_83580" data-name="패스 83580" d="M150.893,95.722l159.05-48.431c-.383-.508-.74-1.011-1.114-1.5l-158.678,48.3c.248.543.494,1.088.742,1.631" transform="translate(278.624 84.961)" fill="#f0f0f0"/>
    <path id="패스_83581" data-name="패스 83581" d="M153.61,99.408,321.393,56.125c-.317-.548-.648-1.085-.982-1.625L153,97.7c.2.571.411,1.134.608,1.708" transform="translate(283.915 101.133)" fill="#f0f0f0"/>
    <path id="패스_83582" data-name="패스 83582" d="M156.3,104.278,335.36,70.056c-.208-.588-.443-1.185-.674-1.782L155.947,102.442c.114.623.228,1.242.351,1.836" transform="translate(289.38 126.693)" fill="#f0f0f0"/>
    <path id="패스_83583" data-name="패스 83583" d="M156.567,103.824c.114.62.2,1.234.274,1.859L338.779,74.828c-.191-.6-.366-1.205-.565-1.822Z" transform="translate(290.53 135.473)" fill="#f0f0f0"/>
    <path id="패스_83584" data-name="패스 83584" d="M341.5,79.627c-.123-.637-.271-1.239-.428-1.856L157.03,105.1c.054.631.12,1.282.191,1.9Z" transform="translate(291.389 144.315)" fill="#f0f0f0"/>
    <path id="패스_83585" data-name="패스 83585" d="M346.066,92.061,157.446,108.5c-.023.657-.034,1.328-.071,1.99L346.169,94.04c-.023-.651-.037-1.331-.1-1.979" transform="translate(292.029 170.832)" fill="#f0f0f0"/>
    <path id="패스_83586" data-name="패스 83586" d="M346.63,96.762,157.324,109.518c-.054.671-.108,1.345-.171,2l189.434-12.76c.037-.663.048-1.334.043-2" transform="translate(291.618 179.554)" fill="#f0f0f0"/>
    <path id="패스_83587" data-name="패스 83587" d="M364.247,218.1c.174-.7.311-1.376.437-2.045l-189.031,1.856c.457-2.179.882-4.338,1.274-6.514L148.693,59.275q-1.769-2.913-3.618-5.743l30.541,164.5c-.146.648-.277,1.288-.426,1.936Z" transform="translate(269.206 99.336)" fill="#f0f0f0"/>
    <path id="패스_83588" data-name="패스 83588" d="M154.844,116.314l188.217,1.633c.209-.674.383-1.374.582-2.065L155.4,114.244Z" transform="translate(287.334 211.995)" fill="#f0f0f0"/>
    <path id="패스_83589" data-name="패스 83589" d="M149.316,130.786l178.979,17.4c.431-.668.857-1.356,1.251-2.05L150.353,128.7c-.328.7-.682,1.391-1.037,2.082" transform="translate(277.075 238.827)" fill="#f0f0f0"/>
    <path id="패스_83590" data-name="패스 83590" d="M325.527,151.474,149.055,131.322c-.354.691-.751,1.385-1.119,2.087l175.9,20.069c-.086.12-.16.243-.251.363v.02l17.631,79.346c.326-.614.651-1.248.96-1.879l-17.462-78.675c.274-.394.551-.78.82-1.179" transform="translate(274.515 243.686)" fill="#f0f0f0"/>
    <path id="패스_83591" data-name="패스 83591" d="M312,165.881,144.7,138.55c-.16.183-.306.354-.448.528-.208.251-.434.514-.651.751-.191.243-.411.48-.611.708l167.086,27.3c.657-.625,1.3-1.282,1.928-1.956" transform="translate(265.335 257.098)" fill="#f0f0f0"/>
    <path id="패스_83592" data-name="패스 83592" d="M141.545,142.106c-.177.191-.365.365-.568.551l164.19,29.459c.7-.628,1.394-1.271,2.085-1.913L142.887,140.71c-.434.474-.888.957-1.342,1.4" transform="translate(261.601 261.105)" fill="#f0f0f0"/>
    <path id="패스_83593" data-name="패스 83593" d="M140.633,143.049c-.22.194-.451.371-.654.554-.4.343-.791.7-1.219,1.036l161.389,31.475q1.169-.908,2.31-1.865l-161.491-31.5a3.159,3.159,0,0,1-.334.3" transform="translate(257.488 264.884)" fill="#f0f0f0"/>
    <path id="패스_83594" data-name="패스 83594" d="M137.327,145.775c-.28.206-.568.394-.848.6a.441.441,0,0,0-.123.094L295.117,179.88c.831-.591,1.656-1.2,2.467-1.822L138.84,144.636c-.511.383-1,.757-1.513,1.139" transform="translate(253.027 268.391)" fill="#f0f0f0"/>
    <path id="패스_83595" data-name="패스 83595" d="M136.472,146.427c-.306.2-.6.388-.911.571l-.1.057a8.637,8.637,0,0,1-.82.54c-.288.188-.614.354-.914.525l156.306,35.3c.928-.58,1.848-1.177,2.739-1.779L136.555,146.378Z" transform="translate(248.149 271.623)" fill="#f0f0f0"/>
    <path id="패스_83596" data-name="패스 83596" d="M85.427,139.171l-.84-1.111c-.074-.089-.131-.188-.217-.294-.214-.3-.42-.577-.637-.874-.151-.223-.317-.437-.451-.668l-.28-.063c.611.98,1.225,1.93,1.859,2.873Z" transform="translate(154.023 252.664)" fill="#f0f0f0"/>
    <path id="패스_83597" data-name="패스 83597" d="M286.349,185.964c.531-.308,1.08-.623,1.619-.957L134.084,147.959a4.316,4.316,0,0,1-.408.217l-.017.008c-.134.074-.274.134-.391.2l-.994.505c-.457.243-.925.471-1.408.708l153.9,37.057c-.18.1-.357.214-.537.308L288.2,305.773c.057-.037.114-.1.171-.134.443-.365.882-.711,1.325-1.074l-3.964-118.251Z" transform="translate(242.839 274.558)" fill="#f0f0f0"/>
    <path id="패스_83598" data-name="패스 83598" d="M85.964,139.335l-.029-.049a2.286,2.286,0,0,0-.26-.294,10.6,10.6,0,0,1-.663-.882l-.88-.22q.989,1.486,2.033,2.944l1.379.357c-.26-.294-.5-.6-.76-.891-.277-.328-.545-.637-.822-.965" transform="translate(156.122 255.874)" fill="#f0f0f0"/>
    <path id="패스_83599" data-name="패스 83599" d="M283.326,188.2,131.45,149.369c-.471.183-.931.383-1.4.565a7.071,7.071,0,0,1-.663.271c-.437.166-.865.346-1.316.52-.111.04-.237.091-.346.131l152.416,38.959c.094-.048.186-.1.28-.143l1.473,122.815c.383-.268.748-.557,1.131-.825.134-.1.248-.191.385-.288l-1.456-122.481c.457-.231.917-.463,1.374-.7" transform="translate(237.006 277.174)" fill="#f0f0f0"/>
    <path id="패스_83600" data-name="패스 83600" d="M154.706,140.576c-.037-.023-.066-.074-.1-.1a.291.291,0,0,1-.074-.091l-1.856-.5-.254-.354L49.094,289.426c.4.671.805,1.342,1.248,2L153.747,141.4q-.463-.643-.925-1.3c.685.965,1.374,1.913,2.087,2.864l2.753.74c-.4-.388-.8-.8-1.191-1.219l-1.765-1.9" transform="translate(91.1 258.928)" fill="#f0f0f0"/>
    <path id="패스_83601" data-name="패스 83601" d="M128.6,150.577c-1.459.465-2.9.88-4.375,1.285l151.26,40.867c.5-.214,1-.434,1.491-.651l-1.225,126.956c.537-.345,1.074-.691,1.593-1.057l1.225-126.6.4-.177Z" transform="translate(230.51 279.415)" fill="#f0f0f0"/>
    <path id="패스_83602" data-name="패스 83602" d="M158.751,145.295c-.271-.243-.563-.474-.842-.731a2.139,2.139,0,0,0-.257-.251.469.469,0,0,1-.111-.114c-.608-.557-1.228-1.131-1.819-1.7l-3.63-1.028c.38.5.768.988,1.154,1.482L51.459,296.229c.423.614.842,1.248,1.305,1.862L154.616,144.709l-.017-.023,5.094,1.436c-.1-.1-.226-.2-.326-.3-.208-.168-.408-.363-.617-.531" transform="translate(95.489 262.524)" fill="#f0f0f0"/>
    <path id="패스_83603" data-name="패스 83603" d="M125.531,151.541c-.714.146-1.425.291-2.15.423a2.442,2.442,0,0,1-.366.054c-.314.071-.654.134-.977.188-.425.069-.825.143-1.251.214a3.192,3.192,0,0,0-.443.077c-.043,0-.1.014-.146.017L271.3,195.531q1.486-.548,2.976-1.111l-4.118,130.993c.557-.306,1.094-.634,1.631-.96L275.9,193.616c-.366.146-.731.28-1.1.417Z" transform="translate(223.046 281.203)" fill="#f0f0f0"/>
    <path id="패스_83604" data-name="패스 83604" d="M98.2,147.925c-.029-.006-.049-.04-.071-.049-.623-.46-1.219-.914-1.822-1.385-.323-.257-.677-.52-1.017-.765-.174-.143-.334-.271-.523-.406l-6.591-1.976q1.375,1.7,2.807,3.364l9.512,2.858c-.114-.089-.231-.177-.377-.271-.645-.468-1.3-.908-1.919-1.371" transform="translate(163.621 265.995)" fill="#f0f0f0"/>
    <path id="패스_83605" data-name="패스 83605" d="M272.417,197.036l-150.08-44.848c-.591.051-1.162.094-1.753.148-.685.04-1.359.1-2.03.129-.528.04-1.054.054-1.576.069-.557.034-1.131.077-1.679.086l152.967,45.7c1.376-.417,2.77-.845,4.152-1.288" transform="translate(213.951 282.405)" fill="#f0f0f0"/>
    <path id="패스_83606" data-name="패스 83606" d="M109.3,153.137c-.037-.023-.063-.031-.1-.054-.6-.317-1.225-.623-1.828-.94-.571-.334-1.131-.654-1.7-.988-.16-.086-.328-.188-.488-.271a3.8,3.8,0,0,0-.471-.283c-.134-.077-.277-.171-.428-.24-.445-.274-.908-.54-1.354-.814l-.508-.3L89.818,145.29c1.028,1.2,2.059,2.379,3.127,3.535l20.812,6.5c-1.019-.5-2.045-.968-3.044-1.476-.471-.237-.942-.477-1.411-.714" transform="translate(166.669 269.605)" fill="#f0f0f0"/>
    <path id="패스_83607" data-name="패스 83607" d="M120.087,153.207c-1.137-.051-2.253-.14-3.384-.26a1.082,1.082,0,0,0-.251-.011c-.234-.02-.44-.034-.657-.063-.494-.049-.959-.089-1.436-.149-.805-.089-1.576-.2-2.364-.3l-.286-.031c-.38-.049-.762-.094-1.125-.148a1.429,1.429,0,0,1-.226-.046c-.545-.063-1.085-.151-1.622-.24-.34-.049-.671-.123-1.008-.171l161.834,50.625c1.525-.348,3.058-.725,4.572-1.134L120.5,153.233l-.414-.026" transform="translate(199.903 281.67)" fill="#f0f0f0"/>
    <path id="패스_83608" data-name="패스 83608" d="M392.256,213.478,192.9,148.349h0c-.5-.52-.977-1.037-1.476-1.573l-97.7,159.158c-.1-.114-.2-.223-.294-.337l-56.35-11.023c.58.531,1.174,1.074,1.762,1.591l55.433,10.854c.243.268.483.54.731.808l97.9-159.475q1.778,1.928,3.607,3.755L386.8,214.286l-.668.111L368.674,360.719c.6-.211,1.191-.44,1.768-.634l17.4-145.826c1.473-.248,2.941-.5,4.415-.782" transform="translate(68.805 272.357)" fill="#f0f0f0"/>
    <path id="패스_83609" data-name="패스 83609" d="M273.292,210.6,93.75,149.482c1.374,1.379,2.778,2.739,4.2,4.046l169.53,57.7c.877-.083,1.759-.191,2.641-.286l-21.2,149.643a4.014,4.014,0,0,1,.423-.134c.46-.134.9-.286,1.362-.44l21.14-149.258c.486-.054.965-.1,1.451-.157" transform="translate(173.965 277.383)" fill="#f0f0f0"/>
    <path id="패스_83610" data-name="패스 83610" d="M311.054,203.084,178.293,154.35q2.219,1.808,4.486,3.541L95.943,326.433c-.354-.248-.711-.494-1.057-.745l-38.334-4.163c.537.331,1.054.628,1.6.945l.8.46,37.215,4.035c.428.317.854.628,1.285.911L184.4,159.127c-.126-.094-.254-.2-.383-.294.26.191.511.394.771.585l.009.017,118,43.321c1.236.077,2.482.137,3.727.189L273.24,362.025c.614-.077,1.228-.191,1.842-.308L308.293,203c.922.031,1.842.063,2.761.08" transform="translate(104.939 286.418)" fill="#f0f0f0"/>
    <path id="패스_83611" data-name="패스 83611" d="M205.611,196.307,103.085,157.319q4.618,3.281,9.4,6.3l81.939,31.155c1.448.234,2.9.445,4.358.654l-41.951,164.5c.611-.02,1.245-.057,1.862-.114l41.846-164.141c1.685.228,3.378.445,5.072.631" transform="translate(191.288 291.927)" fill="#f0f0f0"/>
    <path id="패스_83612" data-name="패스 83612" d="M180.49,184.624l-59.437-23.37c4.675,2.684,9.466,5.192,14.307,7.513a218.832,218.832,0,0,0,33.285,12.748l-.494-.146L112.718,352.193c-1.708-.171-3.415-.34-5.109-.56l-4.743.12a3.479,3.479,0,0,0,.434.051q3.05.3,6.131.551c.36.029.717.06,1.077.088.3.02.557.034.857.051l.017.011,2.764-.074c.148.014.294.031.443.046l.017-.057,55.311-170.535c-.28-.08-.551-.16-.828-.243,3.05.885,6.122,1.688,9.209,2.439L127.364,353.226c.634.057,1.248.057,1.882.074l50.813-168.782c.143.034.286.071.431.106" transform="translate(190.881 299.227)" fill="#f0f0f0"/>
    <path id="패스_83613" data-name="패스 83613" d="M104.767,226.989l-9.018.111c.868.148,1.748.277,2.613.425,1.082.157,2.156.334,3.221.485.02.009.026-.009.043,0l7.964-.1c-1.6-.286-3.2-.588-4.809-.917Z" transform="translate(177.675 421.207)" fill="#f0f0f0"/>
    <path id="패스_83614" data-name="패스 83614" d="M89.754,225.871c.194.046.391.091.594.12a8.9,8.9,0,0,0,.908.194c1.068.26,2.139.48,3.215.682l.017.009,11.888.017c-1.254-.323-2.507-.648-3.767-1Z" transform="translate(166.55 419.133)" fill="#f0f0f0"/>
    <path id="패스_83615" data-name="패스 83615" d="M100.906,224.791l-16.657-.268c1.394.383,2.8.751,4.195,1.094l15.8.26c-1.114-.331-2.227-.708-3.338-1.085" transform="translate(156.335 416.631)" fill="#f0f0f0"/>
    <path id="패스_83616" data-name="패스 83616" d="M99.755,334.464,176,162.25c-.577-.306-1.134-.631-1.708-.96L97.915,333.79,74.271,332.7c1.108.42,2.213.811,3.33,1.214l23.308,1.074-1.154-.52" transform="translate(137.819 299.294)" fill="#f0f0f0"/>
    <path id="패스_83617" data-name="패스 83617" d="M97.23,221.155l-.017-.009L69.63,219.465c1,.42,2.01.851,3.018,1.256l26.983,1.645c-.808-.4-1.6-.794-2.4-1.211" transform="translate(129.208 407.246)" fill="#f0f0f0"/>
    <path id="패스_83618" data-name="패스 83618" d="M96.342,219.829l-31.229-2.39a.4.4,0,0,1,.143.06c.885.423,1.765.82,2.65,1.242l.017.009,30.621,2.33c-.74-.406-1.479-.811-2.2-1.251" transform="translate(120.825 403.486)" fill="#f0f0f0"/>
    <path id="패스_83619" data-name="패스 83619" d="M95.585,218.47l-34.822-3.224c.491.26.982.523,1.473.782.374.2.734.38,1.108.574l.017.011,34.259,3.164c-.688-.42-1.368-.854-2.036-1.308" transform="translate(112.753 399.418)" fill="#f0f0f0"/>
    <path id="패스_83620" data-name="패스 83620" d="M94.721,321.4l89.9-166.577c-.54-.423-1.077-.865-1.593-1.325L92.954,320.4c.274.225.548.437.82.657l-41.352-5.186,1.77,1.154c.166.1.306.2.471.294l41.5,5.2c-.488-.371-.965-.742-1.445-1.122" transform="translate(97.274 284.835)" fill="#f0f0f0"/>
    <path id="패스_83621" data-name="패스 83621" d="M93.978,214.144l-.017-.009-45.553-6.474c.711.5,1.385.977,2.1,1.474l.017.011,45.125,6.4c-.574-.463-1.119-.934-1.668-1.4" transform="translate(89.827 385.343)" fill="#f0f0f0"/>
    <path id="패스_83622" data-name="패스 83622" d="M93.7,212.635l-49.191-7.844c.665.5,1.339,1.019,2.022,1.525l48.7,7.779c-.511-.5-1.017-.965-1.528-1.459" transform="translate(82.596 380.017)" fill="#f0f0f0"/>
    <path id="패스_83623" data-name="패스 83623" d="M93.482,211.108l-52.743-9.364c.62.537,1.225,1.062,1.865,1.565L94.95,212.6c-.5-.483-.982-.985-1.468-1.488" transform="translate(75.597 374.364)" fill="#f0f0f0"/>
    <path id="패스_83624" data-name="패스 83624" d="M93.632,302.362l99.853-156.288-1.439-1.673L92.1,300.871c.294.4.6.785.908,1.177L33.541,289.312c.543.554,1.079,1.088,1.631,1.625L94.683,303.7c-.351-.454-.7-.888-1.051-1.336" transform="translate(62.24 267.953)" fill="#f0f0f0"/>
    <path id="패스_83625" data-name="패스 83625" d="M93.6,206.41,30.122,191.581c.4.454.822.917,1.251,1.365.1.1.166.208.263.308l63.115,14.729c-.38-.531-.771-1.042-1.151-1.573" transform="translate(55.895 355.504)" fill="#f0f0f0"/>
    <path id="패스_83626" data-name="패스 83626" d="M93.886,204.834,26.842,187.857c.445.568.937,1.139,1.414,1.7l.014.011,66.665,16.868c-.354-.537-.694-1.065-1.048-1.6" transform="translate(49.81 348.592)" fill="#f0f0f0"/>
    <path id="패스_83627" data-name="패스 83627" d="M94.3,203.259l-.017-.009L23.7,183.964c.351.468.717.945,1.085,1.422.08.091.151.2.231.288l70.223,19.187q-.471-.8-.937-1.6" transform="translate(43.977 341.37)" fill="#f0f0f0"/>
    <path id="패스_83628" data-name="패스 83628" d="M94.8,201.677,20.725,179.911c.386.6.774,1.157,1.194,1.731l.017.009L95.654,203.3q-.441-.788-.857-1.625" transform="translate(38.458 333.848)" fill="#f0f0f0"/>
    <path id="패스_83629" data-name="패스 83629" d="M96.718,272.8,202.907,134.167c-.1-.211-.231-.423-.345-.651a3.745,3.745,0,0,1-.211-.365c-.077-.134-.154-.268-.231-.423-.057-.114-.114-.228-.171-.363-.057-.117-.117-.231-.174-.345L95.587,270.646c.1.254.208.514.311.771L15.241,244.255c.049.071.086.16.134.231.311.534.6,1.059.928,1.576l80.583,27.143c-.06-.134-.111-.268-.168-.4" transform="translate(28.281 244.98)" fill="#f0f0f0"/>
    <path id="패스_83630" data-name="패스 83630" d="M97.034,266.5l-.02-.009L203.772,131.682c-.094-.171-.171-.346-.248-.5-.154-.328-.288-.654-.443-.979-.057-.114-.094-.231-.151-.346-.06-.154-.134-.308-.194-.46L96.032,264.151c.223.76.485,1.516.757,2.259l-84.01-30.17c.317.6.634,1.208.948,1.811l83.9,30.115c-.191-.551-.4-1.114-.588-1.668" transform="translate(23.714 240.118)" fill="#f0f0f0"/>
    <path id="패스_83631" data-name="패스 83631" d="M98,195.581,10.5,162.162a1.353,1.353,0,0,1,.114.223c.243.54.485,1.079.754,1.611l87.151,33.3c-.157-.577-.337-1.148-.517-1.716" transform="translate(19.485 300.913)" fill="#f0f0f0"/>
    <path id="패스_83632" data-name="패스 83632" d="M99.107,194.16,8.427,157.382c.046.114.083.2.129.317.069.151.137.3.188.437.157.383.3.754.465,1.111l90.329,36.626c-.14-.571-.277-1.134-.431-1.713" transform="translate(15.637 292.044)" fill="#f0f0f0"/>
    <path id="패스_83633" data-name="패스 83633" d="M100.316,192.762,6.563,152.481c.014.051.04.086.051.14.214.588.411,1.168.637,1.739l93.416,40.133c-.128-.583-.24-1.157-.351-1.73" transform="translate(12.179 282.95)" fill="#f0f0f0"/>
    <path id="패스_83634" data-name="패스 83634" d="M101.608,191.424,4.922,147.476l.006.026c.18.611.363,1.251.568,1.856l96.377,43.794c-.086-.583-.18-1.148-.266-1.728" transform="translate(9.134 273.661)" fill="#f0f0f0"/>
    <path id="패스_83635" data-name="패스 83635" d="M103.083,190.178,3.493,142.361l.074.286c.131.543.263,1.082.42,1.616l99.25,47.643c-.069-.571-.128-1.159-.154-1.728" transform="translate(6.482 264.171)" fill="#f0f0f0"/>
    <path id="패스_83636" data-name="패스 83636" d="M104.616,188.98,2.3,137.173c.126.625.251,1.254.4,1.87L104.685,190.7c-.026-.568-.06-1.162-.068-1.722" transform="translate(4.267 254.543)" fill="#f0f0f0"/>
    <path id="패스_83637" data-name="패스 83637" d="M111.464,213.749,222.9,105.721c.231-.688.46-1.379.711-2.07a2.461,2.461,0,0,1,.134-.346c.094-.308.211-.634.326-.939.154-.4.288-.788.443-1.191a3.581,3.581,0,0,0,.151-.423c.02-.037.04-.094.06-.134L111.918,209.971q-.274,1.559-.528,3.133L.006,144.041c-.014.634,0,1.262.014,1.89l111.258,68.975c.057-.388.123-.771.186-1.157" transform="translate(0 186.71)" fill="#f0f0f0"/>
    <path id="패스_83638" data-name="패스 83638" d="M113.533,184.214.1,110.416c-.029.625-.06,1.251-.071,1.885l113.146,73.61c.111-.577.231-1.128.36-1.7" transform="translate(0.053 204.892)" fill="#f0f0f0"/>
    <path id="패스_83639" data-name="패스 83639" d="M115.6,183.564l.009-.017L.455,105.012c-.009.171-.026.317-.037.488-.04.377-.069.737-.091,1.122-.006.086-.02.186-.026.271L115.163,185.24c.146-.56.283-1.1.437-1.676" transform="translate(0.558 194.863)" fill="#f0f0f0"/>
    <path id="패스_83640" data-name="패스 83640" d="M117.737,183.008,1.079,99.638c-.089.614-.168,1.211-.24,1.833l116.37,83.182c.16-.548.346-1.1.528-1.645" transform="translate(1.558 184.891)" fill="#f0f0f0"/>
    <path id="패스_83641" data-name="패스 83641" d="M124.425,182.059,4.449,83.794c-.166.591-.328,1.182-.494,1.773l119.708,98.045c.237-.528.508-1.037.762-1.553" transform="translate(7.339 155.491)" fill="#f0f0f0"/>
    <path id="패스_83642" data-name="패스 83642" d="M126.729,181.992,6.05,78.647c-.083.26-.168.523-.251.785-.106.337-.228.665-.32,1.011L125.864,183.531c.288-.5.585-1.014.865-1.539" transform="translate(10.167 145.942)" fill="#f0f0f0"/>
    <path id="패스_83643" data-name="패스 83643" d="M131.418,182.217,9.951,68.692c-.251.585-.508,1.145-.748,1.716L130.376,183.677q.522-.732,1.042-1.459" transform="translate(17.077 127.468)" fill="#f0f0f0"/>
    <path id="패스_83644" data-name="패스 83644" d="M136.087,182.9,14.712,59.237c-.314.548-.617,1.1-.917,1.665l121.119,123.38c.4-.457.777-.925,1.174-1.382" transform="translate(25.599 109.922)" fill="#f0f0f0"/>
    <path id="패스_83645" data-name="패스 83645" d="M142.64,184.391,23.472,46.43c-.405.474-.805.974-1.2,1.473l118.96,137.71c.48-.411.96-.82,1.414-1.222" transform="translate(41.32 86.158)" fill="#f0f0f0"/>
    <path id="패스_83646" data-name="패스 83646" d="M143.059,185.972c.48-.408.968-.794,1.471-1.168L26.843,42.671c-.423.463-.862.92-1.3,1.4Z" transform="translate(47.406 79.183)" fill="#f0f0f0"/>
    <path id="패스_83647" data-name="패스 83647" d="M29.023,40.5,144.707,186.22c.52-.363,1.051-.745,1.553-1.119L30.417,39.2c-.491.426-.937.854-1.394,1.3" transform="translate(53.857 72.735)" fill="#f0f0f0"/>
    <path id="패스_83648" data-name="패스 83648" d="M32.67,49.2,146.261,198.43c.537-.354,1.074-.708,1.619-1.037L34.329,48.192c.591-.48,1.182-.96,1.776-1.434L46.777,29.522c-.928.845-1.842,1.682-2.756,2.519l-.014.011L34.121,48.024,32.67,49.2" transform="translate(60.624 54.783)" fill="#f0f0f0"/>
    <path id="패스_83649" data-name="패스 83649" d="M40.411,31.5,148.956,186.63c.577-.308,1.162-.634,1.756-.934L42.076,30.421c-.554.343-1.134.7-1.665,1.077" transform="translate(74.988 56.45)" fill="#f0f0f0"/>
    <path id="패스_83650" data-name="패스 83650" d="M151.976,185.737,46.206,28.064c-.594.3-1.182.628-1.75.959l105.7,157.571c.611-.291,1.219-.58,1.822-.857" transform="translate(82.494 52.076)" fill="#f0f0f0"/>
    <path id="패스_83651" data-name="패스 83651" d="M156.14,185.209,63.444,21.393c-.691.154-1.382.354-2.079.528L154.07,185.763Z" transform="translate(113.871 39.697)" fill="#f0f0f0"/>
    <path id="패스_83652" data-name="패스 83652" d="M74.354,19.394l81.9,164.9h.029l-3.792,3.7c.134-.037.288-.094.423-.134.248-.094.523-.171.768-.268.348-.114.691-.248,1.054-.363a2.487,2.487,0,0,0,.346-.1.474.474,0,0,1,.154-.04c.785-.248,1.593-.5,2.379-.728l2.7-2.627c-.617.08-1.239.171-1.859.257l-81.84-164.8c-.742.06-1.5.109-2.262.2" transform="translate(137.973 35.618)" fill="#f0f0f0"/>
    <path id="패스_83653" data-name="패스 83653" d="M78.659,19.049,156.88,183.613c.525-.054,1.059-.1,1.591-.151-1.179.109-2.344.234-3.527.377l-2.016,2.013c.537-.154,1.094-.288,1.651-.423l2.533-.574c.037-.02.094-.02.134-.04.037,0,.077-.017.114-.017l1.359-1.359.434-.043L81.009,18.966c-.782.014-1.565.026-2.35.083" transform="translate(145.962 35.194)" fill="#f0f0f0"/>
    <path id="패스_83654" data-name="패스 83654" d="M82.94,18.969l74.506,163.9c.768-.066,1.545-.106,2.319-.143L85.342,19.026c-.8-.037-1.6-.06-2.4-.057" transform="translate(153.906 35.199)" fill="#f0f0f0"/>
    <path id="패스_83655" data-name="패스 83655" d="M87.187,54.56l70.782,162.9c.777-.04,1.576-.043,2.37-.071L89.771,55.026c.148.017.291.017.44.037l.017-.009L150.128.112c-.694.023-1.4.057-2.107.109l-59.4,54.46c-.477-.04-.951-.086-1.431-.12" transform="translate(161.787 0.209)" fill="#f0f0f0"/>
    <path id="패스_83656" data-name="패스 83656" d="M99.6,21.194l59.982,158.553c.237.049.46.089.68.126.323.054.665.117.977.189.308.043.623.114.92.174l-59.9-158.347c-.868-.26-1.756-.485-2.656-.694" transform="translate(184.819 39.328)" fill="#f0f0f0"/>
    <path id="패스_83657" data-name="패스 83657" d="M103.61,22.308,160.251,179.4c.628.14,1.271.291,1.879.465.254.06.5.134.762.217L106.309,23.159c-.894-.294-1.8-.574-2.7-.851" transform="translate(192.262 41.397)" fill="#f0f0f0"/>
    <path id="패스_83658" data-name="패스 83658" d="M107.543,23.639l53.463,155.609a3,3,0,0,1,.431.137c.277.094.545.206.808.288.5.177,1,.337,1.5.537L110.311,24.71q-1.371-.557-2.773-1.068" transform="translate(199.56 43.865)" fill="#f0f0f0"/>
    <path id="패스_83659" data-name="패스 83659" d="M111.4,25.189l50.427,154.19c.588.248,1.159.488,1.745.74.317.14.625.294.945.434a.4.4,0,0,0,.143.06l-50.447-154.2q-1.392-.638-2.813-1.225" transform="translate(206.71 46.742)" fill="#f0f0f0"/>
    <path id="패스_83660" data-name="패스 83660" d="M162.816,179.9c.326.166.634.323.948.505l.1.057a7.614,7.614,0,0,1,.877.44c.308.154.614.354.914.525L118.068,28.417c-.965-.514-1.942-1.011-2.91-1.482l47.575,152.916Z" transform="translate(213.691 49.982)" fill="#f0f0f0"/>
    <path id="패스_83661" data-name="패스 83661" d="M149.736,130.4c-.04.108-.1.208-.148.334-.149.334-.288.654-.437.988-.12.243-.22.494-.354.728l.086.271c.543-1.017,1.059-2.025,1.559-3.044l-.163-.56c-.183.428-.363.854-.543,1.282" transform="translate(276.111 239.596)" fill="#f0f0f0"/>
    <path id="패스_83662" data-name="패스 83662" d="M120.48,69.645c-.531-.306-1.079-.623-1.639-.922L163.7,220.513a4.256,4.256,0,0,1,.388.246l.017.011c.134.074.257.169.371.237.326.209.631.406.937.6.44.274.868.568,1.314.868L121.871,70.664c.177.106.363.206.537.311L223.314,8.132c-.063-.031-.14-.051-.2-.083-.537-.2-1.057-.411-1.593-.611L121.091,70Z" transform="translate(220.525 13.804)" fill="#f0f0f0"/>
    <path id="패스_83663" data-name="패스 83663" d="M150.681,128.025c-.146.4-.28.791-.423,1.2l-.031.049a2.568,2.568,0,0,0-.123.371,10.7,10.7,0,0,1-.431,1.014l.248.874q.793-1.6,1.534-3.233l-.38-1.374c-.126.371-.268.731-.394,1.1" transform="translate(277.737 235.523)" fill="#f0f0f0"/>
    <path id="패스_83664" data-name="패스 83664" d="M122.436,71.126l42.312,150.943c.394.317.8.614,1.191.931.206.14.388.288.568.437.36.3.728.577,1.1.885.091.074.2.157.288.231L125.432,73.076c-.089-.057-.177-.111-.263-.171L230.793,10.221c-.425-.2-.857-.368-1.282-.565-.149-.069-.288-.12-.44-.188l-105.344,62.5c-.431-.28-.86-.565-1.291-.842" transform="translate(227.196 17.569)" fill="#f0f0f0"/>
    <path id="패스_83665" data-name="패스 83665" d="M151.8,124.4c-.134.543-.3,1.091-.46,1.639-.254.828-.511,1.653-.768,2.482,0,.043-.031.091-.034.134a.247.247,0,0,1-.04.111l.5,1.856c-.06.131-.117.263-.18.4l181.472,14.541c.38-.685.76-1.371,1.105-2.079L151.768,128.943c-.217.483-.44.968-.662,1.454.494-1.077.971-2.147,1.436-3.241Z" transform="translate(279.278 230.847)" fill="#f0f0f0"/>
    <path id="패스_83666" data-name="패스 83666" d="M125.929,73.708l40,150.537c1.134,1.031,2.213,2.076,3.3,3.147L128.99,75.963c-.437-.328-.874-.645-1.311-.965L238.241,12.58c-.568-.291-1.137-.585-1.711-.851L126.28,73.967l-.351-.26" transform="translate(233.678 21.765)" fill="#f0f0f0"/>
    <path id="패스_83667" data-name="패스 83667" d="M152.311,121.836c-.043.263-.109.534-.151.8-.074.357-.128.722-.211,1.1a2.188,2.188,0,0,0-.089.346.494.494,0,0,1-.046.151c-.177.808-.363,1.631-.557,2.424l.922,3.658c.243-.577.474-1.159.708-1.739l183.631,11.511c.323-.671.66-1.354.96-2.059l-183.757-11.52-.011.026L152.4,121.4c-.034.137-.06.3-.094.434" transform="translate(280.676 225.277)" fill="#f0f0f0"/>
    <path id="패스_83668" data-name="패스 83668" d="M152.451,120.293c.006.026-.014.06-.009.086-.089.768-.183,1.511-.291,2.27-.057.408-.111.842-.151,1.262-.04.22-.069.426-.091.657l1.582,6.694q.784-2.039,1.513-4.112l-2.284-9.666c-.017.143-.034.288-.043.46-.083.794-.14,1.582-.226,2.35" transform="translate(281.885 218.004)" fill="#f0f0f0"/>
    <path id="패스_83669" data-name="패스 83669" d="M132.65,38.9l36.2,152.4c.34.483.663.96,1.005,1.442.377.574.765,1.131,1.125,1.693.3.44.577.885.851,1.331.306.465.631.939.911,1.414l-36.9-155.329c-1.051-.982-2.116-1.973-3.193-2.95" transform="translate(246.149 72.177)" fill="#f0f0f0"/>
    <path id="패스_83670" data-name="패스 83670" d="M152.576,123.752l2.879,12.893c.528-1.488,1.028-2.973,1.5-4.475l-4.776-21.27c.077,1.131.183,2.253.243,3.375l.086,1.579a.686.686,0,0,1,0,.111c.029.68.071,1.371.1,2.05-.006.662,0,1.308-.006,1.968.006.183,0,.38.009.56a3.951,3.951,0,0,0-.006.551c0,.154-.011.326,0,.488-.014.525-.011,1.057-.026,1.582l-.009.591" transform="translate(282.388 205.783)" fill="#f0f0f0"/>
    <path id="패스_83671" data-name="패스 83671" d="M135.873,42.021,171.08,199.1l.183.371c.525,1.011,1.005,2.022,1.468,3.061a1.244,1.244,0,0,0,.114.223c.1.211.191.4.274.6.206.448.4.874.591,1.316.326.74.617,1.462.925,2.193.037.089.074.177.114.266.148.354.3.705.434,1.048a1.169,1.169,0,0,1,.071.22c.22.5.414,1.014.605,1.525.129.317.228.64.357.957L139.143,45.413c-1.065-1.145-2.159-2.285-3.27-3.392" transform="translate(252.13 77.975)" fill="#f0f0f0"/>
    <path id="패스_83672" data-name="패스 83672" d="M139.02,80.808l43.274,205.208h-.006c-.2.691-.408,1.365-.623,2.068l186.689,5.035c-.048.14-.094.28-.143.423l18.627,54.311c.171-.768.346-1.553.5-2.322L369.021,292.1c.111-.346.226-.685.334-1.037L182.3,286.016c.52-1.668,1-3.338,1.451-5L142.45,85.129l.428.523L278.326,27.608c-.48-.408-.977-.808-1.431-1.211L141.9,84.241c-.951-1.154-1.9-2.3-2.884-3.432" transform="translate(257.969 48.983)" fill="#f0f0f0"/>
    <path id="패스_83673" data-name="패스 83673" d="M142.087,85.094l36.846,186.044c.505-1.879.982-3.775,1.4-5.66l-34.8-175.664c-.511-.72-1.048-1.431-1.571-2.145l140.2-56.461a3.276,3.276,0,0,1-.328-.3c-.346-.331-.7-.637-1.062-.959L142.949,86.271c-.291-.391-.568-.785-.862-1.177" transform="translate(263.66 55.58)" fill="#f0f0f0"/>
    <path id="패스_83674" data-name="패스 83674" d="M148.023,89.776,172.2,229.119c.306-1.885.577-3.769.825-5.657l189.379-9.07c-.04.431-.074.862-.117,1.288l15.557,35.281c.02-.631.02-1.228.02-1.859v-.922l-15.112-34.245c.06-.531.117-1.054.146-1.571l-189.613,9.078c-.017.16-.046.323-.066.483.04-.323.089-.643.126-.965l.009-.017L151.864,97.089c-.551-1.111-1.122-2.219-1.7-3.324L304.577,43.052c-.374-.491-.78-.965-1.188-1.442L149.334,92.21c-.434-.811-.865-1.625-1.311-2.43" transform="translate(274.676 77.214)" fill="#f0f0f0"/>
    <path id="패스_83675" data-name="패스 83675" d="M150.982,91.213l17.5,108.282q.531-5.642.754-11.283l-13.99-86.543c-.523-1.371-1.065-2.736-1.611-4.1L317.074,51.645c-.323-.523-.671-1.054-1.028-1.556L152.972,95.922c-.648-1.579-1.3-3.15-1.99-4.709" transform="translate(280.167 92.947)" fill="#f0f0f0"/>
    <path id="패스_83676" data-name="패스 83676" d="M154.122,98.964l9.481,63.158c-.014-5.389-.24-10.791-.648-16.146a218.76,218.76,0,0,0-5.6-35.2c.04.168.083.34.12.5L333.147,73.869c.7,1.565,1.394,3.13,2.05,4.709l2.476,4.046a3.485,3.485,0,0,0-.171-.4q-1.268-2.789-2.59-5.583l-.463-.977c-.134-.271-.248-.5-.383-.768v-.02l-1.448-2.359c-.06-.134-.12-.268-.18-.406l-.06.014L157.038,109.49c.071.283.137.56.206.842-.76-3.084-1.6-6.148-2.493-9.2L326.7,60.67c-.265-.574-.574-1.108-.874-1.665L154.245,99.392c-.043-.143-.08-.286-.123-.428" transform="translate(285.994 109.491)" fill="#f0f0f0"/>
    <path id="패스_83677" data-name="패스 83677" d="M220.581,74.21l4.6,7.75c-.306-.825-.631-1.651-.939-2.473-.4-1.019-.785-2.036-1.188-3.033,0-.02-.02-.02-.02-.037l-4.066-6.851c.554,1.536,1.094,3.07,1.611,4.623Z" transform="translate(406.329 129.092)" fill="#f0f0f0"/>
    <path id="패스_83678" data-name="패스 83678" d="M220.542,74.458c.346,1.248.691,2.493,1.017,3.761l6.408,11.146c-.057-.191-.114-.383-.191-.574-.077-.288-.174-.577-.288-.882-.308-1.057-.651-2.093-1.017-3.13v-.017Z" transform="translate(409.244 138.167)" fill="#f0f0f0"/>
    <path id="패스_83679" data-name="패스 83679" d="M222.366,82.253l8.1,14.561c-.365-1.4-.748-2.8-1.151-4.184l-7.673-13.813c.268,1.134.5,2.285.728,3.435" transform="translate(411.278 146.258)" fill="#f0f0f0"/>
    <path id="패스_83680" data-name="패스 83680" d="M343.64,84.394c-.094-.611-.2-1.236-.294-1.845L157.313,106.3c.04.643.077,1.285.089,1.922L343.388,84.488c.12.751.24,1.5.354,2.256l9.592,17.859c-.269-1.228-.537-2.436-.8-3.644v-.02Z" transform="translate(291.914 153.181)" fill="#f0f0f0"/>
    <path id="패스_83681" data-name="패스 83681" d="M344.7,88.145,157.435,108.226c.023.651.02,1.3.023,1.956l187.575-20.1L355.91,111.1c-.191-1.171-.4-2.322-.614-3.492l-10.723-20.72c.04.414.083.84.126,1.259" transform="translate(292.142 161.228)" fill="#f0f0f0"/>
    <path id="패스_83682" data-name="패스 83682" d="M223.437,93.387v.02l12.336,24.727c-.134-1.074-.268-2.167-.423-3.241L223.283,90.7c.057.9.117,1.782.154,2.684" transform="translate(414.33 168.311)" fill="#f0f0f0"/>
    <path id="패스_83683" data-name="패스 83683" d="M223.411,94.458c.02.845.037,1.688.02,2.533l13.544,28.239a.4.4,0,0,1-.02-.154c-.077-.977-.171-1.936-.248-2.916v-.02Z" transform="translate(414.568 175.281)" fill="#f0f0f0"/>
    <path id="패스_83684" data-name="패스 83684" d="M223.431,98.126q-.03,1.208-.114,2.419l14.618,31.769c-.02-.557-.037-1.114-.057-1.671-.02-.42-.04-.825-.057-1.245v-.02Z" transform="translate(414.394 182.087)" fill="#f0f0f0"/>
    <path id="패스_83685" data-name="패스 83685" d="M345.823,107.145l-189.208,5.437c-.1.674-.211,1.362-.351,2.039l189.582-5.449c.057-.348.1-.691.154-1.037l16.189,38.4c.037-.708.077-1.4.114-2.11,0-.191.02-.363.02-.557l-16.251-38.54c-.077.608-.16,1.205-.249,1.81" transform="translate(289.968 195.462)" fill="#f0f0f0"/>
    <path id="패스_83686" data-name="패스 83686" d="M222.034,111.029v.023L239.2,153.738c.077-.868.154-1.688.228-2.553v-.02l-17.017-42.283c-.114.731-.248,1.442-.383,2.147" transform="translate(412.013 202.046)" fill="#f0f0f0"/>
    <path id="패스_83687" data-name="패스 83687" d="M221.275,114.442l17.8,46.524c.1-.825.211-1.671.308-2.516l-17.611-46.061c-.174.691-.326,1.362-.5,2.053" transform="translate(410.604 208.552)" fill="#f0f0f0"/>
    <path id="패스_83688" data-name="패스 83688" d="M220.361,117.862l18.265,50.359c.154-.8.3-1.591.423-2.4l-18.13-49.974c-.174.671-.366,1.342-.557,2.013" transform="translate(408.909 214.975)" fill="#f0f0f0"/>
    <path id="패스_83689" data-name="패스 83689" d="M338.945,128.627,153.666,120.3q-.364,1.041-.725,2.082L338.422,130.7c.2-.451.38-.914.565-1.376l18.7,57.866c.211-.748.4-1.476.594-2.225l-18.7-57.921c-.217.531-.42,1.051-.631,1.579" transform="translate(283.802 223.227)" fill="#f0f0f0"/>
    <path id="패스_83690" data-name="패스 83690" d="M216.646,127.778l18.9,62.39c.194-.577.385-1.171.557-1.765.04-.137.1-.251.134-.386l-18.8-62.024c-.271.594-.52,1.191-.788,1.785" transform="translate(402.014 233.796)" fill="#f0f0f0"/>
    <path id="패스_83691" data-name="패스 83691" d="M215.087,130.973l18.819,66.55c.271-.671.52-1.379.768-2.07v-.02L215.95,129.265c-.285.577-.574,1.131-.862,1.708" transform="translate(399.122 239.868)" fill="#f0f0f0"/>
    <path id="패스_83692" data-name="패스 83692" d="M213.367,134.094v.02l18.59,70.771c.231-.537.46-1.094.691-1.651.037-.114.094-.228.134-.346l-18.5-70.4c-.306.537-.614,1.074-.919,1.611" transform="translate(395.93 245.841)" fill="#f0f0f0"/>
    <path id="패스_83693" data-name="패스 83693" d="M211.486,137.174l18.188,75.032c.326-.634.614-1.248.9-1.9v-.02l-18.11-74.666c-.308.517-.634,1.037-.979,1.553" transform="translate(392.44 251.664)" fill="#f0f0f0"/>
    <path id="패스_83694" data-name="패스 83694" d="M320.911,156.49,147.755,133.845c-.134.188-.248.411-.391.625a3.23,3.23,0,0,1-.211.366c-.077.134-.154.268-.248.411-.071.106-.143.214-.231.331-.069.109-.14.214-.211.323l173.148,22.645c.171-.211.34-.434.511-.654l16.8,83.433c.04-.077.1-.154.134-.231.308-.537.614-1.057.9-1.593l-16.785-83.356c-.089.117-.18.228-.266.346" transform="translate(271.777 248.368)" fill="#f0f0f0"/>
    <path id="패스_83695" data-name="패스 83695" d="M316.406,161.283v.023L146.282,136.254c-.1.168-.211.323-.306.465-.208.3-.423.574-.628.871-.071.109-.151.2-.223.306-.1.126-.2.271-.3.4l170.053,25.032c.545-.574,1.068-1.179,1.576-1.788l15.877,87.842,1.094-1.728-15.866-87.711c-.383.44-.768.9-1.151,1.342" transform="translate(268.738 252.838)" fill="#f0f0f0"/>
    <path id="패스_83696" data-name="패스 83696" d="M202.41,148.628l14.809,92.488a1.286,1.286,0,0,1,.134-.208c.346-.48.691-.959,1.019-1.459l-14.735-92.125c-.423.423-.825.862-1.228,1.3" transform="translate(375.598 273.378)" fill="#f0f0f0"/>
    <path id="패스_83697" data-name="패스 83697" d="M199.77,151.212l13.487,96.92c.077-.094.134-.171.211-.268.094-.134.191-.268.288-.383.248-.326.5-.634.728-.96l-13.45-96.537c-.42.4-.842.8-1.265,1.228" transform="translate(370.699 278.315)" fill="#f0f0f0"/>
    <path id="패스_83698" data-name="패스 83698" d="M196.982,153.694l11.991,101.335c.037-.04.057-.077.094-.117.4-.48.8-.94,1.191-1.419l-11.951-100.97c-.443.4-.885.788-1.325,1.171" transform="translate(365.526 283.027)" fill="#f0f0f0"/>
    <path id="패스_83699" data-name="패스 83699" d="M194.066,156.036l10.283,105.707.02-.017c.44-.463.9-.942,1.322-1.422L195.428,154.942c-.46.366-.9.728-1.362,1.094" transform="translate(360.114 287.515)" fill="#f0f0f0"/>
    <path id="패스_83700" data-name="패스 83700" d="M191.016,158.21,199.4,268.368l.211-.211c.4-.385.8-.768,1.188-1.171l-8.364-109.773c-.46.346-.939.688-1.419,1" transform="translate(354.455 291.73)" fill="#f0f0f0"/>
    <path id="패스_83701" data-name="패스 83701" d="M187.852,160.262l6.294,114.513c.48-.423.957-.845,1.419-1.285l-6.254-114.148c-.48.306-.979.631-1.459.92" transform="translate(348.583 295.681)" fill="#f0f0f0"/>
    <path id="패스_83702" data-name="패스 83702" d="M168.006,303.253c.557-.288,1.114-.574,1.668-.882L176.85,167.58c-.557.191-1.094.366-1.651.537Z" transform="translate(311.757 310.965)" fill="#f0f0f0"/>
    <path id="패스_83703" data-name="패스 83703" d="M173.612,169.154,163.175,308.146c.154-.077.288-.134.443-.211.346-.154.671-.306,1.017-.48.077-.037.171-.077.248-.114L175.3,168.694c-.557.151-1.094.306-1.668.46Z" transform="translate(302.792 313.033)" fill="#f0f0f0"/>
    <path id="패스_83704" data-name="패스 83704" d="M172.108,169.986,158.238,312.7c.574-.231,1.131-.463,1.708-.711l13.85-142.37c-.557.134-1.131.251-1.688.366" transform="translate(293.631 314.755)" fill="#f0f0f0"/>
    <path id="패스_83705" data-name="패스 83705" d="M168.026,171.352,142.914,324.388l1.785-.46,25.055-152.687c-.577.057-1.151.077-1.728.111" transform="translate(265.196 317.759)" fill="#f0f0f0"/>
    <path id="패스_83706" data-name="패스 83706" d="M166.842,171.421,137.68,327.6c.268-.057.537-.114.8-.174.345-.077.691-.134,1.037-.228l29.085-155.8c-.577,0-1.171,0-1.765.02" transform="translate(255.483 318.056)" fill="#f0f0f0"/>
    <path id="패스_83707" data-name="패스 83707" d="M164.749,171.086,127.166,333.043c.634-.077,1.248-.134,1.862-.211L166.534,171.26q-.9-.09-1.785-.174" transform="translate(235.973 317.473)" fill="#f0f0f0"/>
    <path id="패스_83708" data-name="패스 83708" d="M163.06,170.038,116.653,336.984c.631,0,1.265-.02,1.9-.04l46.293-166.58c-.6-.114-1.191-.211-1.785-.326" transform="translate(216.465 315.527)" fill="#f0f0f0"/>
    <path id="패스_83709" data-name="패스 83709" d="M161.168,167.182,101.274,339.365c.614.114,1.248.211,1.879.306L162.933,167.8c-.594-.211-1.188-.423-1.765-.614" transform="translate(187.927 310.229)" fill="#f0f0f0"/>
    <path id="패스_83710" data-name="패스 83710" d="M162.359,166.6c-.594-.211-1.171-.443-1.745-.691L96.363,338.9c.614.134,1.228.288,1.862.423Z" transform="translate(178.814 307.874)" fill="#f0f0f0"/>
    <path id="패스_83711" data-name="패스 83711" d="M91.6,337.784c.614.211,1.208.383,1.822.557L161.777,165.3c-.574-.268-1.171-.537-1.745-.788Z" transform="translate(169.975 305.267)" fill="#f0f0f0"/>
    <path id="패스_83712" data-name="패스 83712" d="M103.268,336.827,175.71,163.839c-.577-.288-1.151-.574-1.708-.882L101.566,335.894q-1.066-.406-2.13-.82l-20.264-.623c1.2.38,2.379.751,3.561,1.122l.014.011,18.776.574c.577.223,1.168.445,1.745.668" transform="translate(146.914 302.387)" fill="#f0f0f0"/>
    <path id="패스_83713" data-name="패스 83713" d="M160.1,160.552c-.557-.346-1.131-.691-1.688-1.057L78.258,331.219c.577.306,1.171.634,1.765.9Z" transform="translate(145.218 295.967)" fill="#f0f0f0"/>
    <path id="패스_83714" data-name="패스 83714" d="M74.18,328.031c.557.366,1.131.711,1.708,1.037l83.607-170.321c-.557-.385-1.114-.768-1.651-1.151Z" transform="translate(137.651 292.441)" fill="#f0f0f0"/>
    <path id="패스_83715" data-name="패스 83715" d="M157.609,152.756c1.659,1.485,3.315,2.933,5.006,4.36l145.854,51.607c2.273-.051,4.529-.134,6.782-.26l-157.728-55.8c-.488-.451-.977-.885-1.462-1.336L63.148,315.989c.52.5,1.037.96,1.556,1.4Z" transform="translate(117.179 280.809)" fill="#f0f0f0"/>
    <path id="패스_83716" data-name="패스 83716" d="M59.89,311.264c.48.517,1,1.017,1.5,1.533l95.541-162.205-1.516-1.516Z" transform="translate(111.134 276.63)" fill="#f0f0f0"/>
    <path id="패스_83717" data-name="패스 83717" d="M48.116,285.471,152.806,139c-.44-.634-.862-1.285-1.285-1.939L46.965,283.36c.366.711.748,1.419,1.151,2.11" transform="translate(87.15 254.33)" fill="#f0f0f0"/>
    <path id="패스_83718" data-name="패스 83718" d="M96.517,279.319l105.69-142.753c-.423-.651-.825-1.342-1.248-2.013l-105.33,142.3c-.06-.137-.131-.26-.188-.4l-.017-.009-77.53-24.407c.368.591.754,1.188,1.148,1.771L95.906,278.02c.2.434.4.865.611,1.3" transform="translate(33.203 249.681)" fill="#f0f0f0"/>
    <path id="패스_83719" data-name="패스 83719" d="M148.758,129.145c-.077-.228-.154-.443-.231-.651-.114-.308-.228-.631-.326-.942-.114-.283-.211-.594-.306-.88L40.71,257.72c.211.882.46,1.765.728,2.647Z" transform="translate(75.543 235.056)" fill="#f0f0f0"/>
    <path id="패스_83720" data-name="패스 83720" d="M148.045,126.484c-.191-.614-.383-1.248-.537-1.862-.077-.248-.134-.5-.191-.765L39.708,251.318c.2.922.4,1.842.617,2.764Z" transform="translate(73.684 229.833)" fill="#f0f0f0"/>
    <path id="패스_83721" data-name="패스 83721" d="M147.438,123.786a3.264,3.264,0,0,1-.1-.443c-.057-.286-.094-.574-.151-.842-.1-.517-.211-1.037-.288-1.573L38.95,244.956q.2,1.469.46,2.936Z" transform="translate(72.276 224.399)" fill="#f0f0f0"/>
    <path id="패스_83722" data-name="패스 83722" d="M38.753,241.748,147.067,120.981c-.077-.634-.154-1.248-.231-1.879-.034-.346-.057-.691-.094-1.037a.473.473,0,0,0-.017-.154L38.4,238.7c.1,1.017.211,2.033.348,3.05" transform="translate(71.266 218.801)" fill="#f0f0f0"/>
    <path id="패스_83723" data-name="패스 83723" d="M38.1,232.5c.037,1.094.094,2.187.171,3.261L146.911,118.1V118c-.017-.366-.037-.711-.037-1.074v-.117a8.606,8.606,0,0,1-.057-.977c-.02-.346,0-.711,0-1.057Z" transform="translate(70.694 212.989)" fill="#f0f0f0"/>
    <path id="패스_83724" data-name="패스 83724" d="M109.571,76.859l1.382-.171c.114-.02.228-.02.363-.04.366-.037.711-.077,1.077-.114.268-.02.537-.057.805-.057l.191-.211c-1.151.037-2.284.094-3.415.171Z" transform="translate(203.323 141.521)" fill="#f0f0f0"/>
    <path id="패스_83725" data-name="패스 83725" d="M106.038,228c0,.614,0,1.248.02,1.879L215.083,115.136a3.517,3.517,0,0,1,.02-.46v-.02c0-.154.02-.308.02-.443.017-.383.037-.748.057-1.111.017-.52.057-1.037.094-1.573L106.227,226.285c0-.206-.006-.417,0-.62L1.348,169.7c.006.069.026.149.031.217.094.565.171,1.119.268,1.685l104.39,55.693Z" transform="translate(2.502 206.958)" fill="#f0f0f0"/>
    <path id="패스_83726" data-name="패스 83726" d="M109.7,77.242a2.6,2.6,0,0,0,.383-.077,10.4,10.4,0,0,1,1.094-.134l.634-.651q-1.786.116-3.569.288l-1,1.014c.383-.074.768-.131,1.151-.208.423-.077.825-.154,1.248-.231Z" transform="translate(199.011 141.735)" fill="#f0f0f0"/>
    <path id="패스_83727" data-name="패스 83727" d="M107.57,224.216,217.135,112.1c.077-.5.134-1,.211-1.5.017-.248.057-.48.094-.711.077-.46.134-.919.211-1.4.02-.114.04-.248.057-.366L107.762,220.646c-.006.106-.009.208-.017.311L.647,160.83c.043.465.109.925.148,1.391.017.166.043.314.057.477l106.8,59.98c-.026.514-.057,1.025-.083,1.539" transform="translate(1.201 200.647)" fill="#f0f0f0"/>
    <path id="패스_83728" data-name="패스 83728" d="M109.29,218.868l110.37-109.91c.326-1.5.691-2.953,1.074-4.429L109.712,215.09c-.066.54-.12,1.079-.183,1.616L.2,152.167c.031.64.063,1.276.117,1.908l109.025,64.36c-.014.146-.034.288-.049.434" transform="translate(0.364 193.968)" fill="#f0f0f0"/>
    <path id="패스_83729" data-name="패스 83729" d="M98.057,84.711c.134-.057.266-.114.42-.191.731-.326,1.436-.671,2.147-.979.023-.02.06-.02.077-.037.711-.308,1.4-.594,2.11-.882.383-.154.785-.326,1.171-.5.211-.077.4-.154.614-.248l5.009-4.72q-2.163.347-4.315.748Z" transform="translate(181.957 143.165)" fill="#f0f0f0"/>
    <path id="패스_83730" data-name="패스 83730" d="M39.769,210l113.88-107.549c.251-.537.5-1.057.748-1.593.308-.614.6-1.228.9-1.822.231-.48.48-.94.728-1.4.251-.5.5-1.017.768-1.5L40.728,205.764c-.326,1.4-.651,2.821-.959,4.241" transform="translate(73.797 178.41)" fill="#f0f0f0"/>
    <path id="패스_83731" data-name="패스 83731" d="M92.359,93.314c.94-.634,1.862-1.285,2.8-1.9.44-.288.882-.577,1.322-.862.04-.02.06-.04.1-.06.577-.363,1.151-.745,1.728-1.111.574-.326,1.131-.654,1.708-.979.151-.094.326-.191.477-.288a3.246,3.246,0,0,0,.48-.268,4.3,4.3,0,0,0,.423-.248c.46-.248.922-.517,1.382-.768.171-.094.346-.191.517-.288l9.726-8.938c-1.553.288-3.087.594-4.623.94Z" transform="translate(171.384 144.001)" fill="#f0f0f0"/>
    <path id="패스_83732" data-name="패스 83732" d="M40.864,209.228,159.29,100.2c.077-.117.154-.231.231-.346.614-.959,1.248-1.882,1.919-2.8a1.448,1.448,0,0,0,.134-.211c.134-.191.248-.366.383-.537.288-.4.557-.788.845-1.171.48-.651.959-1.268,1.439-1.9l.171-.231c.231-.306.46-.614.691-.9a1.194,1.194,0,0,1,.154-.171c.326-.44.671-.862,1.017-1.285.211-.268.44-.52.651-.785L42.169,204.7c-.46,1.5-.9,3.013-1.305,4.529" transform="translate(75.829 166.753)" fill="#f0f0f0"/>
    <path id="패스_83733" data-name="패스 83733" d="M117.678,353.447,273.758,213.37h0c.7-.171,1.388-.326,2.1-.491L186.876,48.68c.148-.026.291-.057.437-.086L225.036,5.309c-.751.234-1.519.48-2.262.728l-37.115,42.58c-.354.08-.708.148-1.065.228l89.161,164.518c-1.7.383-3.39.8-5.054,1.248l-149,133.706c.077-.208.157-.42.237-.634L1.954,259.4c-.114.623-.214,1.254-.334,1.848l117.589,87.982c-.523,1.4-1.037,2.8-1.531,4.212" transform="translate(3.006 9.853)" fill="#f0f0f0"/>
    <path id="패스_83734" data-name="패스 83734" d="M120.772,203.843l142.7-124.931c-1.879.5-3.761,1.037-5.6,1.613L123.131,198.491c-.366.8-.714,1.622-1.071,2.43L3.066,107.737a3.549,3.549,0,0,1-.1.434c-.111.465-.2.925-.3,1.4L121.36,202.509c-.194.445-.4.882-.588,1.334" transform="translate(4.958 146.433)" fill="#f0f0f0"/>
    <path id="패스_83735" data-name="패스 83735" d="M49.4,288.74c-1.094,2-2.147,3.989-3.164,6.005l127.184-108.7c.634-.2,1.257-.4,1.89-.6L79.161,22.656c-.691.2-1.348.417-1.988.645L173.3,186.078c-2.116.694-4.2,1.4-6.28,2.156Z" transform="translate(85.791 42.041)" fill="#f0f0f0"/>
    <path id="패스_83736" data-name="패스 83736" d="M126.626,294.618l108.585-90.609q-2.677,1.019-5.311,2.116L127.357,46.649c.394-.18.785-.366,1.174-.543l22.776-31.115c-.56.3-1.074.6-1.622.914l-.8.463-22.1,30.21c-.488.214-.968.425-1.431.66L228.02,206.907c.149-.063.3-.123.451-.186-.3.129-.6.246-.9.377h-.02l-96.517,80.537c-.685,1.031-1.359,2.079-2.027,3.133L7.886,182.4c-.24.568-.448,1.159-.657,1.748l120.844,108.12c-.485.782-.974,1.562-1.448,2.35" transform="translate(13.415 27.821)" fill="#f0f0f0"/>
    <path id="패스_83737" data-name="패스 83737" d="M129.542,187.957l85.026-69.295q-5.153,2.364-10.149,4.992l-67.952,55.385c-.928,1.137-1.836,2.287-2.744,3.444L12.227,63.9c-.288.543-.574,1.114-.831,1.673l121.23,118.309q-1.568,2.022-3.084,4.075" transform="translate(21.147 118.577)" fill="#f0f0f0"/>
    <path id="패스_83738" data-name="패스 83738" d="M136.841,198.356l49.956-39.79c-4.66,2.707-9.226,5.6-13.658,8.635a218.287,218.287,0,0,0-27.682,22.454l.374-.357L25.609,55.881c1-1.394,2-2.787,3.038-4.146l2.267-4.169c-.086.117-.183.22-.263.351q-1.782,2.493-3.538,5.034c-.206.3-.411.594-.617.888l-.474.717L26,54.565,24.689,57c-.086.12-.177.24-.263.36l.043.046L144.5,190.569q.316-.3.628-.6c-2.293,2.2-4.523,4.461-6.719,6.759L17.39,68.048c-.366.52-.671,1.051-1,1.591l120.764,128.4c-.1.108-.208.211-.308.32" transform="translate(30.404 88.263)" fill="#f0f0f0"/>
  </g>
</svg>
